HIERARCHY
ROOT Hips
{
	OFFSET 0.00000 0.00000 0.00000
	CHANNELS 6 Xposition Yposition Zposition Zrotation Yrotation Xrotation 
	JOINT LHipJoint
	{
		OFFSET 0 0 0
		CHANNELS 3 Zrotation Yrotation Xrotation
		JOINT LeftUpLeg
		{
			OFFSET 1.81638 -1.86202 0.89635
			CHANNELS 3 Zrotation Yrotation Xrotation
			JOINT LeftLeg
			{
				OFFSET 2.63464 -7.23861 0.00000
				CHANNELS 3 Zrotation Yrotation Xrotation
				JOINT LeftFoot
				{
					OFFSET 2.45871 -6.75336 0.00000
					CHANNELS 3 Zrotation Yrotation Xrotation
					JOINT LeftToeBase
					{
						OFFSET 0.34235 -0.94059 2.20020
						CHANNELS 3 Zrotation Yrotation Xrotation
						End Site
						{
							OFFSET 0.00000 -0.00000 1.18611
						}
					}
				}
			}
		}
	}
	JOINT RHipJoint
	{
		OFFSET 0 0 0
		CHANNELS 3 Zrotation Yrotation Xrotation
		JOINT RightUpLeg
		{
			OFFSET -1.84405 -1.86203 0.89635
			CHANNELS 3 Zrotation Yrotation Xrotation
			JOINT RightLeg
			{
				OFFSET -2.71067 -7.44751 0.00000
				CHANNELS 3 Zrotation Yrotation Xrotation
				JOINT RightFoot
				{
					OFFSET -2.47159 -6.79060 0.00000
					CHANNELS 3 Zrotation Yrotation Xrotation
					JOINT RightToeBase
					{
						OFFSET -0.26223 -0.72048 2.36007
						CHANNELS 3 Zrotation Yrotation Xrotation
						End Site
						{
							OFFSET -0.00000 -0.00000 1.23343
						}
					}
				}
			}
		}
	}
	JOINT LowerBack
	{
		OFFSET 0 0 0
		CHANNELS 3 Zrotation Yrotation Xrotation
		JOINT Spine
		{
			OFFSET 0.02089 1.99248 -0.22512
			CHANNELS 3 Zrotation Yrotation Xrotation
			JOINT Spine1
			{
				OFFSET 0.01476 2.01356 -0.03079
				CHANNELS 3 Zrotation Yrotation Xrotation
				JOINT Neck
				{
					OFFSET 0 0 0
					CHANNELS 3 Zrotation Yrotation Xrotation
					JOINT Neck1
					{
						OFFSET 0.04846 1.65098 0.06663
						CHANNELS 3 Zrotation Yrotation Xrotation
						JOINT Head
						{
							OFFSET -0.06061 1.60634 -0.07565
							CHANNELS 3 Zrotation Yrotation Xrotation
							End Site
							{
								OFFSET -0.02954 1.73562 -0.03642
							}
						}
					}
				}
				JOINT LeftShoulder
				{
					OFFSET 0 0 0
					CHANNELS 3 Zrotation Yrotation Xrotation
					JOINT LeftArm
					{
						OFFSET 3.45234 1.47051 -0.06993
						CHANNELS 3 Zrotation Yrotation Xrotation
						JOINT LeftForeArm
						{
							OFFSET 5.49313 -0.00000 0.00000
							CHANNELS 3 Zrotation Yrotation Xrotation
							JOINT LeftHand
							{
								OFFSET 3.29037 -0.00000 0.00000
								CHANNELS 3 Zrotation Yrotation Xrotation
								JOINT LeftFingerBase
								{
									OFFSET 0 0 0
									CHANNELS 3 Zrotation Yrotation Xrotation
									JOINT LeftHandIndex1
									{
										OFFSET 0.72966 -0.00000 0.00000
										CHANNELS 3 Zrotation Yrotation Xrotation
										End Site
										{
											OFFSET 0.58827 -0.00000 0.00000
										}
									}
								}
								JOINT LThumb
								{
									OFFSET 0 0 0
									CHANNELS 3 Zrotation Yrotation Xrotation
									End Site
									{
										OFFSET 0.59725 -0.00000 0.59725
									}
								}
							}
						}
					}
				}
				JOINT RightShoulder
				{
					OFFSET 0 0 0
					CHANNELS 3 Zrotation Yrotation Xrotation
					JOINT RightArm
					{
						OFFSET -3.41935 1.44327 0.20453
						CHANNELS 3 Zrotation Yrotation Xrotation
						JOINT RightForeArm
						{
							OFFSET -5.23684 -0.00000 0.00000
							CHANNELS 3 Zrotation Yrotation Xrotation
							JOINT RightHand
							{
								OFFSET -3.38251 -0.00000 0.00000
								CHANNELS 3 Zrotation Yrotation Xrotation
								JOINT RightFingerBase
								{
									OFFSET 0 0 0
									CHANNELS 3 Zrotation Yrotation Xrotation
									JOINT RightHandIndex1
									{
										OFFSET -0.69145 -0.00000 0.00000
										CHANNELS 3 Zrotation Yrotation Xrotation
										End Site
										{
											OFFSET -0.55747 -0.00000 0.00000
										}
									}
								}
								JOINT RThumb
								{
									OFFSET 0 0 0
									CHANNELS 3 Zrotation Yrotation Xrotation
									End Site
									{
										OFFSET -0.56598 -0.00000 0.56598
									}
								}
							}
						}
					}
				}
			}
		}
	}
}
MOTION
Frames: 11
Frame Time: .0083333
7.0449 17.8807 -18.9272 8.0441 51.0674 15.3063 0.0000 0.0000 0.0000 -14.6945 6.0782 -1.2853 0.4897 4.4870 12.4509 0.3814 -9.8791 -12.1309 1.2675 -7.1361 -20.1193 0.0000 0.0000 0.0000 14.2873 13.3612 -31.7566 -3.3506 -11.2421 33.1007 -0.3440 -7.1510 -15.9481 -0.2198 -3.0179 8.3286 -5.1218 -4.5735 23.0608 -1.2230 -7.0875 4.2758 3.5747 -3.2072 -7.6118 2.8575 -1.4330 -5.7935 -0.2400 -2.0882 -0.5665 -0.5964 -1.0468 0.7539 0.0000 0.0000 0.0000 -62.4769 5.5026 26.6384 75.6731 -59.2100 -47.6254 -0.0000 -0.0000 4.0559 9.3995 5.9424 0.9818 -7.1250 0.0000 -0.0000 -14.4098 35.6806 3.3884 0.0000 0.0000 0.0000 72.7664 -36.9649 42.1123 -28.7320 39.7814 -10.5888 0.0000 -0.0000 -3.5158 -6.1273 -16.8697 1.7844 7.1250 -0.0000 -0.0000 20.2984 -45.8972 -0.4688
7.1356 17.8785 -18.8101 8.2227 51.0068 15.5528 0.0000 0.0000 0.0000 -14.5719 6.1550 -1.0823 0.5084 4.5705 12.6875 0.3329 -10.1919 -11.6857 1.3869 -7.4512 -21.0593 0.0000 0.0000 0.0000 14.5619 12.5774 -31.6874 -3.3746 -11.2781 33.2236 -0.2451 -8.5803 -16.0929 -0.2224 -3.0358 8.3783 -4.9431 -4.6241 22.9026 -0.9989 -7.0874 4.2403 3.7051 -3.2139 -7.5602 3.1142 -1.4019 -5.7717 -0.9442 -2.0539 -0.7080 -0.8562 -1.0405 0.6998 -0.0000 0.0000 0.0000 -62.7840 5.8729 26.9494 76.6946 -59.3204 -48.5035 -0.0000 -0.0000 3.7741 9.5361 5.7808 0.9694 -7.1250 0.0000 -0.0000 -14.2673 35.5294 3.4073 -0.0000 0.0000 0.0000 72.6874 -37.2017 41.4486 -28.4118 39.4925 -10.3845 0.0000 -0.0000 -3.8768 -5.8205 -16.7776 1.6854 7.1250 -0.0000 -0.0000 20.5350 -45.7730 -0.4091
7.2245 17.8736 -18.6912 8.3137 50.9478 15.7287 0.0000 0.0000 0.0000 -14.3706 6.1762 -1.1656 0.5725 4.8454 13.4681 0.2909 -10.5994 -11.3579 1.5007 -7.7377 -21.9201 0.0000 0.0000 0.0000 14.8930 11.8453 -31.6002 -3.4098 -11.3306 33.4031 -0.1797 -9.4545 -16.2031 -0.2143 -2.9802 8.2235 -4.7285 -4.6522 22.7621 -0.7458 -7.0489 4.1997 3.8385 -3.2019 -7.5275 3.3854 -1.3801 -5.7412 -1.6717 -2.0337 -0.8675 -1.1284 -1.0411 0.6388 -0.0000 0.0000 0.0000 -63.2210 6.2998 27.2488 77.4046 -59.3920 -49.1144 -0.0000 -0.0000 3.4595 9.5896 5.6715 0.9565 -7.1250 0.0000 -0.0000 -14.2029 35.4249 3.4284 -0.0000 0.0000 0.0000 72.6728 -37.3741 40.6983 -28.0386 39.1518 -10.1481 0.0000 -0.0000 -4.0887 -5.5543 -16.6930 1.6000 7.1250 -0.0000 -0.0000 20.7380 -45.6612 -0.3537
7.3115 17.8671 -18.5709 8.2921 50.8878 15.8198 0.0000 0.0000 0.0000 -14.0761 6.1320 -1.5346 0.6891 5.3071 14.7865 0.2525 -11.0796 -11.1191 1.6171 -8.0182 -22.7694 0.0000 0.0000 0.0000 15.2864 11.1917 -31.5013 -3.4503 -11.3906 33.6086 -0.1584 -9.7861 -16.3100 -0.1996 -2.8772 7.9370 -4.4654 -4.6600 22.6397 -0.4576 -6.9713 4.1565 3.9746 -3.1710 -7.5117 3.6478 -1.3698 -5.7066 -2.4083 -2.0297 -1.0522 -1.4051 -1.0491 0.5691 -0.0000 0.0000 0.0000 -63.7911 6.7763 27.5400 77.7761 -59.4278 -49.4341 -0.0000 -0.0000 3.1323 9.5971 5.6435 0.9526 -7.1250 0.0000 -0.0000 -14.1915 35.3978 3.4351 -0.0000 0.0000 0.0000 72.7109 -37.4628 39.8657 -27.6089 38.7537 -9.8779 0.0000 -0.0000 -4.1357 -5.3318 -16.6068 1.5279 7.1250 -0.0000 -0.0000 20.9011 -45.5536 -0.2988
7.3970 17.8597 -18.4496 8.1166 50.8238 15.7918 0.0000 0.0000 0.0000 -13.6612 6.0194 -2.1548 0.8648 5.9299 16.5812 0.2126 -11.5987 -10.8995 1.7378 -8.2971 -23.6202 0.0000 0.0000 0.0000 15.7626 10.6446 -31.3813 -3.4909 -11.4502 33.8138 -0.1770 -9.6817 -16.4348 -0.1847 -2.7678 7.6330 -4.1174 -4.6479 22.5295 -0.1393 -6.8460 4.1187 4.0843 -3.1183 -7.5071 3.9097 -1.3704 -5.6736 -3.1403 -2.0424 -1.2529 -1.6837 -1.0645 0.4939 0.0000 -0.0000 0.0000 -64.4609 7.2944 27.8473 77.7993 -59.4300 -49.4541 -0.0000 -0.0000 2.8270 9.5648 5.7136 0.9611 -7.1250 0.0000 -0.0000 -14.2311 35.4649 3.4212 0.0000 -0.0000 0.0000 72.8253 -37.4591 38.9351 -27.1208 38.2942 -9.5739 0.0000 -0.0000 -4.0074 -5.1607 -16.5097 1.4702 7.1250 -0.0000 -0.0000 21.0144 -45.4423 -0.2401
7.4813 17.8518 -18.3279 7.7710 50.7495 15.6350 0.0000 0.0000 0.0000 -13.1159 5.8429 -2.9810 1.1042 6.6768 18.7612 0.1678 -12.1283 -10.6479 1.8670 -8.5833 -24.5004 0.0000 0.0000 0.0000 16.3285 10.2186 -31.2368 -3.5282 -11.5045 34.0010 -0.2235 -9.2896 -16.5952 -0.1742 -2.6883 7.4121 -3.6755 -4.6174 22.4312 0.2095 -6.6723 4.0872 4.1627 -3.0436 -7.5130 4.1536 -1.3777 -5.6519 -3.8455 -2.0654 -1.4591 -1.9542 -1.0838 0.4182 -0.0000 -0.0000 0.0000 -65.2174 7.8530 28.1804 77.4582 -59.3972 -49.1605 -0.0000 -0.0000 2.5995 9.5335 5.8841 0.9864 -7.1250 0.0000 -0.0000 -14.2893 35.6307 3.3765 -0.0000 -0.0000 0.0000 73.0036 -37.3479 37.9179 -26.5699 37.7659 -9.2345 0.0000 -0.0000 -3.6953 -5.0373 -16.3988 1.4255 7.1250 -0.0000 -0.0000 21.0800 -45.3238 -0.1764
7.5648 17.8433 -18.2060 7.2546 50.6532 15.3490 0.0000 0.0000 0.0000 -12.4447 5.5973 -3.9632 1.4103 7.5112 21.2390 0.1149 -12.6260 -10.3030 1.9962 -8.8582 -25.3528 0.0000 0.0000 0.0000 16.9862 9.9087 -31.0589 -3.5588 -11.5489 34.1544 -0.2838 -8.7549 -16.7853 -0.1666 -2.6299 7.2501 -3.1339 -4.5688 22.3327 0.5786 -6.4496 4.0714 4.1933 -2.9474 -7.5141 4.3791 -1.3933 -5.6478 -4.5049 -2.1013 -1.6680 -2.2098 -1.1085 0.3437 -0.0000 0.0000 0.0000 -66.0328 8.4465 28.5439 76.7561 -59.3268 -48.5564 -0.0000 -0.0000 2.5035 9.5225 6.1372 1.0274 -7.1250 0.0000 -0.0000 -14.3476 35.8785 3.3017 -0.0000 0.0000 0.0000 73.2493 -37.1097 36.8194 -25.9530 37.1623 -8.8593 0.0000 -0.0000 -3.2010 -4.9640 -16.2633 1.3934 7.1250 -0.0000 -0.0000 21.0922 -45.1888 -0.1030
7.6480 17.8345 -18.0844 6.5828 50.5244 14.9474 0.0000 0.0000 0.0000 -11.6635 5.2901 -5.0308 1.7755 8.3819 23.8802 0.0513 -13.0420 -9.7946 2.1083 -9.0882 -26.0716 0.0000 0.0000 0.0000 17.7320 9.6939 -30.8248 -3.5731 -11.5695 34.2256 -0.3470 -8.1767 -16.9842 -0.1627 -2.5985 7.1627 -2.5007 -4.5037 22.2313 0.9590 -6.1829 4.0704 4.1715 -2.8318 -7.5084 4.5898 -1.4140 -5.6568 -5.1151 -2.1456 -1.8738 -2.4497 -1.1362 0.2717 0.0000 -0.0000 0.0000 -66.8794 9.0606 28.9516 75.6519 -59.2076 -47.6073 -0.0000 -0.0000 2.5861 9.5442 6.4453 1.0813 -7.1250 0.0000 -0.0000 -14.3910 36.1820 3.2024 0.0000 -0.0000 0.0000 73.5466 -36.7398 35.6680 -25.2763 36.4851 -8.4537 0.0000 -0.0000 -2.5296 -4.9380 -16.1254 1.3746 7.1250 -0.0000 -0.0000 21.0619 -45.0568 -0.0310
7.7313 17.8253 -17.9635 5.7927 50.3525 14.4563 0.0000 0.0000 0.0000 -10.8039 4.9008 -6.1719 2.2076 9.2857 26.6932 -0.0175 -13.3536 -9.1517 2.1824 -9.2361 -26.5366 0.0000 0.0000 0.0000 18.5491 9.5381 -30.5472 -3.5769 -11.5750 34.2445 -0.4013 -7.6666 -17.1562 -0.1598 -2.5757 7.0997 -1.7969 -4.4224 22.1367 1.3398 -5.8795 4.0794 4.1003 -2.6994 -7.5032 4.7956 -1.4337 -5.6898 -5.6768 -2.1904 -2.0593 -2.6754 -1.1636 0.2098 0.0000 -0.0000 0.0000 -67.7433 9.7120 29.4005 74.1864 -59.0337 -46.3494 -0.0000 -0.0000 2.8655 9.5930 6.7765 1.1425 -7.1250 0.0000 -0.0000 -14.4178 36.5099 3.0897 0.0000 -0.0000 0.0000 73.8760 -36.2380 34.4896 -24.5422 35.7324 -8.0210 0.0000 -0.0000 -1.6827 -4.9505 -15.9852 1.3665 7.1250 -0.0000 -0.0000 20.9975 -44.9275 0.0394
7.8150 17.8240 -17.8418 4.9409 50.1222 13.9138 0.0000 0.0000 0.0000 -9.9166 4.4397 -7.3333 2.6992 10.1914 29.5989 -0.0868 -13.5273 -8.3832 2.2091 -9.2888 -26.7029 0.0000 0.0000 0.0000 19.4136 9.3954 -30.1921 -3.5658 -11.5591 34.1894 -0.4520 -7.2054 -17.3408 -0.1546 -2.5338 6.9834 -1.0538 -4.3236 22.0505 1.7030 -5.5463 4.0999 3.9791 -2.5532 -7.4941 4.9967 -1.4535 -5.7263 -6.1826 -2.2363 -2.2345 -2.8838 -1.1908 0.1513 0.0000 -0.0000 0.0000 -68.6159 10.3944 29.8727 72.3593 -58.7909 -44.7848 -0.0000 -0.0000 3.3568 9.6645 7.0912 1.2043 -7.1250 0.0000 -0.0000 -14.4234 36.8228 2.9774 0.0000 -0.0000 0.0000 74.2284 -35.6029 33.3018 -23.7614 34.9109 -7.5696 0.0000 -0.0000 -0.6629 -4.9804 -15.8531 1.3637 7.1250 -0.0000 -0.0000 20.9212 -44.8074 0.1041
7.8986 17.8133 -17.7235 4.0639 49.8359 13.3510 0.0000 0.0000 0.0000 -9.0229 3.8993 -8.5138 3.2505 11.0899 32.5836 -0.1542 -13.5837 -7.5043 2.1742 -9.2200 -26.4858 0.0000 0.0000 0.0000 20.2928 9.2553 -29.8212 -3.5474 -11.5324 34.0973 -0.5043 -6.7202 -17.5345 -0.1455 -2.4578 6.7727 -0.2963 -4.2086 21.9850 2.0451 -5.1915 4.1217 3.8220 -2.3960 -7.4950 5.2144 -1.4709 -5.7649 -6.6564 -2.2806 -2.3925 -3.0865 -1.2170 0.0983 0.0000 -0.0000 0.0000 -69.4826 11.1036 30.3813 70.2022 -58.4659 -42.9429 -0.0000 -0.0000 4.0016 9.7426 7.3866 1.2646 -7.1250 0.0000 -0.0000 -14.4205 37.1177 2.8697 0.0000 -0.0000 0.0000 74.5851 -34.8479 32.1199 -22.9479 34.0317 -7.1091 0.0000 0.0000 0.5289 -5.0141 -15.7319 1.3627 7.1250 -0.0000 -0.0000 20.8460 -44.6980 0.1627
